# xmcd
#
# Track frame offsets:
#	150
#	1981
#	11754
#	13779
#	24729
#	29545
#	37696
#	40327
#	52576
#	58745
#	74264
#	88321
#	98621
#	102008
#	113823
#	128974
#	131515
#	147740
#	152420
#	163958
#	176435
#	186791
#	198188
#	198682
#	211929
#	216704
#	227935
#	229731
#	244939
#	264812
#	276852
#	277550
#	292530
#	309001
#	321616
#
# Disc length: 4455 seconds
# Revision: 0
# Processed by: cddbd v1.5.2PL0 Copyright (c) Steve Scherf et al.
# Submitted via: dBpowerAMP V12.0
#
DISCID=ec116523
DTITLE=Dale Watson - Live at The Big T Roadhouse, Chicken $#!+ Bingo Sunday
DYEAR=2016
DGENRE=FCC
TTITLE0=Intro
TTITLE1=Big T's
TTITLE2=The Best Dogs in the Land
TTITLE3=Sit and Drink and Cry
TTITLE4=The Best Beer in the World
TTITLE5=Where Do You Want It
TTITLE6=4 Times
TTITLE7=Everybody's Somebody in St. Hedwig, Texas
TTITLE8=Back Yonder
TTITLE9=The Fugitive
TTITLE10=Winner #1
TTITLE11=I Gotta Drive
TTITLE12=Best Dogs/Best Beer
TTITLE13=Honky Tonkers Don't Cry
TTITLE14=Lubbock Boy
TTITLE15=Your Chance to Win
TTITLE16=The Bottle Let Me Down
TTITLE17=Looks Great, Tastes Great…Sounds Great
TTITLE18=Inside View
TTITLE19=Winner #2
TTITLE20=I Don't Rock No Cradle
TTITLE21=Smile
TTITLE22=Get to Know Don Don
TTITLE23=Don Don Boogie
TTITLE24=Oh No, Saddest Day in My Life
TTITLE25=Tienes Cabeza de Palo
TTITLE26=Right Now
TTITLE27=Amos Moses
TTITLE28=Deep in the Heart of Texas
TTITLE29=Never Ever
TTITLE30=Last Chance
TTITLE31=I Lie When I Drink
TTITLE32=Winner #3
TTITLE33=Birmingham Break Down
TTITLE34=Winner #4 - Goodnight!
EXTD=
EXTT0=
EXTT1=
EXTT2=
EXTT3=
EXTT4=
EXTT5=
EXTT6=
EXTT7=
EXTT8=
EXTT9=
EXTT10=
EXTT11=
EXTT12=
EXTT13=
EXTT14=
EXTT15=
EXTT16=
EXTT17=
EXTT18=
EXTT19=
EXTT20=
EXTT21=
EXTT22=
EXTT23=
EXTT24=
EXTT25=
EXTT26=
EXTT27=
EXTT28=
EXTT29=
EXTT30=
EXTT31=
EXTT32=
EXTT33=
EXTT34=
PLAYORDER=
